# xmcd
#
# Track frame offsets:
#	150
#	10060
#	39125
#	44880
#	57245
#	69575
#	81337
#	109757
#	121295
#	147020
#	163672
#	178890
#	190452
#	206617
#	226122
#	237555
#	252975
#	267825
#
# Disc length: 3801
#
# Revision: 1
# Processed by: cddbd v1.5.1PL0 Copyright (c) Steve Scherf et al.
# Submitted via: CD-Runner 2003.08
# Normalized: r0:DSETVAR1,TDELIM( - )
#
DISCID=020ed712
DTITLE=Various Artist - Salt Shaker Blues
DYEAR=1997
DGENRE=Blues
TTITLE0=Roy Head - Nobody But Me Tells My Eagle When To Fly
TTITLE1=Pierre Blanchard - I'm Gonna Move
TTITLE2=Ted Hawley - Box Guitar Ride
TTITLE3=Johnny Williams - Honey Child
TTITLE4=Sideways Sumlin - Two Picks And A Bone
TTITLE5=Rockin' Dave Allen - One Of These Days
TTITLE6=Red, Hot And Blue - Cold, Cold Feeling
TTITLE7=Janis Joplin - Nobody Know You When You're Down And Out
TTITLE8=Chris Holzhaus - Long Sad Letters
TTITLE9=Terrapin Jackson - Milk Cow Blues
TTITLE10=Bruce Brooks - Gonna Get My Baby
TTITLE11=Joey Long - I Need Someone
TTITLE12=Lou Ann Barton With Stevie Ray Vaughan - Scratch My Back
TTITLE13=Johnny Winter With Loudmouth Johnson - Lien On Your Body
TTITLE14=Edgar Winter And The Party Boys - Jole Blon
TTITLE15=Pierre Blanchard - Black Cat Bone
TTITLE16=Spatz - Dock Of The Bay
TTITLE17=Steve Owens - Mercury Blues
EXTD=Collectors Choice/Elap  57025 CD       1997
EXTT0=
EXTT1=
EXTT2=
EXTT3=
EXTT4=
EXTT5=
EXTT6=
EXTT7=
EXTT8=
EXTT9=
EXTT10=
EXTT11=
EXTT12=
EXTT13=
EXTT14=
EXTT15=
EXTT16=
EXTT17=
PLAYORDER=
